<svg version="1.1" id="Layer_1" xmlns="http://www.w3.org/2000/svg" xmlns:xlink="http://www.w3.org/1999/xlink" x="0px" y="0px"
	 width="100%" viewBox="0 0 1200 1200" enable-background="new 0 0 1200 1200" xml:space="preserve">
<path fill="#000000" opacity="1.000000" stroke="none" 
	d="
M793.000000,1201.000000 
	C528.666687,1201.000000 264.833344,1201.000000 1.000000,1201.000000 
	C1.000000,801.000000 1.000000,401.000000 1.000000,1.000000 
	C401.000000,1.000000 801.000000,1.000000 1201.000000,1.000000 
	C1201.000000,401.000000 1201.000000,801.000000 1201.000000,1201.000000 
	C1065.166626,1201.000000 929.333313,1201.000000 793.000000,1201.000000 
M625.793213,743.118225 
	C630.667297,742.428772 635.550476,741.798157 640.413879,741.039978 
	C665.378296,737.148254 688.991455,729.050415 711.679321,718.080933 
	C736.132935,706.257690 758.419922,691.040100 777.843384,672.236389 
	C790.589661,659.896851 802.167419,646.116089 812.809326,631.889282 
	C831.036804,607.521851 843.503906,580.089966 852.112305,550.891479 
	C858.795105,528.224365 862.109985,505.041382 862.909424,481.496613 
	C863.155762,474.241272 862.813965,466.889313 861.906616,459.686768 
	C859.796570,442.937439 858.261536,426.004395 854.509460,409.599548 
	C849.043030,385.698853 839.341370,363.238098 827.022339,341.949585 
	C810.851929,314.005737 790.695923,289.517609 765.637390,269.021881 
	C747.110046,253.868179 727.194641,241.125366 705.463623,231.045135 
	C675.961792,217.360260 644.935791,209.204193 612.656006,207.342224 
	C593.378967,206.230301 573.790161,207.238358 554.568665,209.355560 
	C534.576660,211.557617 515.270508,217.530426 496.326782,224.705673 
	C464.694641,236.686874 436.622406,254.336578 411.830322,277.004730 
	C400.644348,287.232391 390.618805,298.882690 381.030792,310.671600 
	C362.665558,333.252502 349.130402,358.675690 339.445038,386.119232 
	C328.839142,416.171143 323.419464,447.122711 324.072510,479.018280 
	C324.268188,488.575928 324.810303,498.187958 326.123718,507.645935 
	C327.832214,519.948975 329.758362,532.306580 332.860107,544.312866 
	C338.490509,566.106812 346.688629,586.943604 357.796844,606.672119 
	C368.418640,625.536682 380.730652,643.161438 395.577820,658.787292 
	C405.690033,669.429871 416.759460,679.300293 428.219299,688.496094 
	C450.909454,706.703430 476.223785,720.475037 503.750641,730.006409 
	C525.204773,737.435181 547.111755,743.239075 569.911743,743.880493 
	C588.247314,744.396301 606.617310,743.687988 625.793213,743.118225 
M882.810608,838.045166 
	C887.745056,838.045166 892.679504,838.045166 897.568115,838.045166 
	C897.568115,833.281128 897.568115,829.242065 897.568115,824.759033 
	C891.879333,824.759033 886.621277,824.759033 880.923828,824.759033 
	C880.923828,818.048645 880.923828,811.784668 880.923828,805.000000 
	C878.535767,805.000000 876.579956,804.999329 874.624084,805.000061 
	C868.050171,805.002563 867.820007,805.296875 866.955017,811.749939 
	C866.477356,815.312866 865.783752,818.864319 864.882385,822.341858 
	C864.620850,823.350769 863.321228,824.813843 862.468445,824.833862 
	C854.384766,825.023743 846.294678,824.946899 838.442871,824.946899 
	C836.114441,811.053528 845.258179,809.502869 854.713867,809.015015 
	C855.276672,804.746948 855.741394,801.222473 856.222656,797.572754 
	C846.636780,794.813660 838.251282,795.617737 830.276794,800.873535 
	C821.505066,806.654907 822.090271,816.198547 820.484131,824.834839 
	C817.569275,824.973816 814.969299,825.097717 812.212341,825.229126 
	C812.125244,826.606079 812.057678,827.578552 812.003296,828.551758 
	C811.747742,833.120728 811.612793,837.427673 818.270325,837.334656 
	C819.159912,837.322144 820.819763,840.109131 820.876038,841.645447 
	C821.150452,849.132324 821.001343,856.634644 821.001648,864.131531 
	C821.001953,872.912537 821.001709,881.693604 821.001709,890.630615 
	C827.259460,890.630615 832.963135,890.630615 839.113464,890.630615 
	C839.113464,873.012695 839.113464,855.759460 839.113464,838.377686 
	C847.608276,838.377686 855.645447,838.377686 864.000610,838.377686 
	C864.000610,851.560974 863.955322,864.369202 864.018066,877.176880 
	C864.054077,884.510254 869.120972,891.139954 876.178528,891.769165 
	C881.516479,892.245117 887.188843,891.945374 892.362244,890.621948 
	C901.014954,888.408508 901.095459,887.070801 896.335083,879.558838 
	C894.462341,876.603638 892.867493,875.130981 889.201111,876.873962 
	C883.975159,879.358276 881.061707,877.302368 881.020020,871.398621 
	C880.950684,861.569885 880.970337,851.740051 881.039917,841.911316 
	C881.048706,840.674255 881.585205,839.440918 882.810608,838.045166 
M492.708710,823.997314 
	C484.337311,822.639893 477.123352,825.581787 469.802704,831.127014 
	C469.802704,818.473328 469.802704,806.915283 469.802704,795.271362 
	C464.038574,795.271362 458.787811,795.271362 453.332642,795.271362 
	C453.332642,827.224243 453.332642,858.906799 453.332642,890.547607 
	C465.420990,892.066711 467.468536,891.561707 469.717926,886.533936 
	C470.262329,886.941711 470.768402,887.359558 471.311432,887.721924 
	C484.274780,896.372131 501.770020,892.741760 509.302155,879.022095 
	C516.781433,865.398560 516.843201,850.882996 510.718597,836.892944 
	C507.700317,829.998352 502.130219,824.474854 492.708710,823.997314 
M302.963654,874.437195 
	C304.292603,876.107056 305.456390,877.947876 306.978180,879.418152 
	C314.925171,887.095947 324.125397,891.759521 335.494507,892.084717 
	C346.938904,892.412109 357.854401,891.855530 367.458862,884.324951 
	C375.574432,877.961670 375.614441,878.423584 368.516174,870.875427 
	C365.020966,867.158569 362.135498,867.366516 358.897034,870.619324 
	C351.596436,877.952332 332.621796,877.885193 324.304413,870.007568 
	C314.905548,861.105774 312.771973,850.113464 314.259460,838.329529 
	C315.380463,829.448669 319.292450,821.487427 327.719757,816.632019 
	C338.012695,810.701721 347.867981,812.154358 357.518280,818.035706 
	C360.826050,820.051575 364.152924,821.621826 367.237152,818.105408 
	C369.463257,815.567383 371.183838,812.585999 373.249420,809.631348 
	C363.538147,799.874695 352.097809,796.607971 338.879333,796.879944 
	C316.732666,797.335632 301.609924,810.688538 296.504303,829.545166 
	C292.417603,844.638550 294.093506,859.975586 302.963654,874.437195 
M636.043030,883.569763 
	C657.159302,899.157776 692.434265,892.386292 699.012878,876.035034 
	C697.704041,874.872314 696.147217,873.611694 694.730713,872.209290 
	C689.369141,866.900818 689.523010,867.091125 682.994995,871.395752 
	C668.688416,880.829590 646.355957,876.861023 640.966553,857.429016 
	C639.284607,851.364807 638.567871,844.636169 639.219482,838.400879 
	C640.760376,823.654358 650.072327,812.665039 666.440674,813.242126 
	C671.869873,813.433411 677.150085,816.633667 682.594971,818.099548 
	C685.387268,818.851318 689.318237,820.108521 691.093140,818.840210 
	C694.060120,816.719971 695.711304,812.758423 697.846313,809.673218 
	C685.830750,795.494446 661.532532,793.784302 646.234314,800.432800 
	C627.862549,808.417114 617.957581,826.632324 619.805054,849.179688 
	C620.914062,862.714783 625.434631,874.010620 636.043030,883.569763 
M438.999603,884.385010 
	C438.999603,864.657471 438.999603,844.929993 438.999603,825.348877 
	C432.877930,825.348877 427.625275,825.348877 421.999390,825.348877 
	C421.999390,839.822693 422.123627,853.953247 421.866394,868.076843 
	C421.827545,870.210815 420.557709,873.109985 418.894470,874.248596 
	C416.164185,876.117737 412.735840,877.356262 409.439941,877.929077 
	C402.608734,879.116211 398.044037,875.017090 398.015167,868.139038 
	C397.963409,855.815308 398.000946,843.491211 398.001160,831.167236 
	C398.001190,829.236877 398.001160,827.306580 398.001160,825.264709 
	C391.720886,825.264709 386.136383,825.264709 379.492401,825.264709 
	C380.041656,842.079468 379.729736,858.694580 381.404480,875.107056 
	C382.633911,887.155396 393.462158,894.069214 405.225647,891.940613 
	C411.282135,890.844727 417.115387,888.515259 423.220917,886.692017 
	C425.414948,891.482727 429.132660,892.566650 438.999512,890.186096 
	C438.999512,888.637329 438.999512,886.994080 438.999603,884.385010 
M753.488281,886.989685 
	C757.105408,891.371948 762.113647,891.901184 767.322571,892.224060 
	C775.866028,892.753662 783.263672,890.172485 789.649292,884.306396 
	C791.113342,891.547607 794.618469,892.850281 804.017700,890.403503 
	C804.017700,874.818298 804.333191,859.405762 803.903076,844.014038 
	C803.631592,834.299683 798.227295,827.553711 788.773010,825.053650 
	C784.368408,823.888794 779.553284,824.156738 774.916931,824.013611 
	C766.778748,823.762451 759.991882,827.329102 753.830505,832.172363 
	C752.816895,832.969116 751.961487,835.118347 752.293396,836.283386 
	C754.079041,842.552795 759.032104,844.431335 765.066528,841.465637 
	C766.837585,840.595215 768.633301,839.774841 770.402344,838.900330 
	C774.624329,836.812866 778.845032,836.875183 782.992126,839.024475 
	C786.032166,840.600098 788.920532,846.853027 787.917236,850.152283 
	C786.721008,854.085693 783.112549,852.402344 780.445251,853.056091 
	C772.881897,854.909912 764.903809,856.010559 757.970642,859.278259 
	C747.284424,864.314880 745.418091,877.184021 753.488281,886.989685 
M569.513550,861.032959 
	C563.098450,870.799622 556.683411,880.566345 549.830566,890.999512 
	C555.628235,890.999512 560.301575,891.236511 564.929260,890.879639 
	C566.716003,890.741882 569.018677,889.702637 570.023315,888.308105 
	C574.717896,881.791626 579.041382,875.007751 583.818237,867.838135 
	C588.019897,874.725891 591.762756,881.061890 595.744080,887.244385 
	C596.712524,888.748230 598.395691,890.702881 599.868835,890.809387 
	C605.601318,891.223877 611.381531,890.978455 617.687378,890.978455 
	C617.049683,889.539307 616.771423,888.607666 616.267517,887.820435 
	C610.266541,878.447388 604.461243,868.935242 598.081787,859.825806 
	C595.855591,856.646851 596.634766,854.626404 598.435791,852.124207 
	C602.745911,846.136047 607.088501,840.170044 611.305298,834.116577 
	C613.221497,831.365845 614.870300,828.428955 616.997864,825.000549 
	C611.418213,825.000549 606.746521,824.766357 602.119385,825.118530 
	C600.328674,825.254944 598.007019,826.267273 597.012573,827.657104 
	C592.647583,833.757446 588.679810,840.141907 584.422485,846.645691 
	C580.485229,840.131775 576.746094,833.783813 572.800415,827.566833 
	C572.088806,826.445618 570.556091,825.196960 569.353821,825.145569 
	C563.499512,824.895691 557.628601,825.032654 551.206482,825.032654 
	C552.040955,826.685425 552.385620,827.602478 552.920044,828.390808 
	C558.621094,836.800232 564.265259,845.250854 570.127075,853.547302 
	C571.935120,856.106262 572.164307,858.208374 569.513550,861.032959 
M706.009399,834.550049 
	C706.009399,853.288818 706.009399,872.027588 706.009399,890.659302 
	C712.441162,890.659302 718.026367,890.659302 724.001221,890.659302 
	C724.001221,878.356567 723.985229,866.390869 724.007507,854.425110 
	C724.019775,847.831665 727.639282,842.892029 734.144165,841.005737 
	C736.062744,840.449341 738.362244,840.208557 740.241150,840.722534 
	C744.053711,841.765442 745.730408,840.288574 746.650696,836.823547 
	C747.994141,831.764771 747.076904,824.791565 744.700989,824.096008 
	C738.286987,822.218079 732.368652,822.784607 727.523560,827.979797 
	C725.942871,829.674744 724.346924,831.355591 723.480713,832.275452 
	C721.748840,829.637146 720.636230,825.889893 718.630615,825.327454 
	C714.825806,824.260620 710.509338,825.018677 706.009399,825.018677 
	C706.009399,828.299072 706.009399,830.932922 706.009399,834.550049 
M543.000000,874.497437 
	C543.000000,858.090149 543.000000,841.682800 543.000000,825.314209 
	C536.948547,825.314209 531.696289,825.314209 526.396606,825.314209 
	C526.396606,847.327087 526.396606,869.023376 526.396606,890.685669 
	C532.051270,890.685669 537.303589,890.685669 543.000000,890.685669 
	C543.000000,885.418579 543.000000,880.457031 543.000000,874.497437 
M536.608826,795.883667 
	C531.486267,794.604553 525.239258,797.736389 524.060852,802.174377 
	C522.443909,808.263855 525.088013,814.135498 530.271179,815.965576 
	C535.874451,817.943909 542.907532,815.306274 544.817322,810.510315 
	C547.134644,804.690918 544.104248,798.772461 536.608826,795.883667 
z"/>
<path fill="#5065A8" opacity="1.000000" stroke="none" 
	d="
M625.382629,743.320557 
	C606.617310,743.687988 588.247314,744.396301 569.911743,743.880493 
	C547.111755,743.239075 525.204773,737.435181 503.750641,730.006409 
	C476.223785,720.475037 450.909454,706.703430 428.219299,688.496094 
	C416.759460,679.300293 405.690033,669.429871 395.577820,658.787292 
	C380.730652,643.161438 368.418640,625.536682 357.796844,606.672119 
	C346.688629,586.943604 338.490509,566.106812 332.860107,544.312866 
	C329.758362,532.306580 327.832214,519.948975 326.123718,507.645935 
	C324.810303,498.187958 324.268188,488.575928 324.072510,479.018280 
	C323.419464,447.122711 328.839142,416.171143 339.445038,386.119232 
	C349.130402,358.675690 362.665558,333.252502 381.030792,310.671600 
	C390.618805,298.882690 400.644348,287.232391 411.830322,277.004730 
	C436.622406,254.336578 464.694641,236.686874 496.326782,224.705673 
	C515.270508,217.530426 534.576660,211.557617 554.568665,209.355560 
	C573.790161,207.238358 593.378967,206.230301 612.656006,207.342224 
	C644.935791,209.204193 675.961792,217.360260 705.463623,231.045135 
	C727.194641,241.125366 747.110046,253.868179 765.637390,269.021881 
	C790.695923,289.517609 810.851929,314.005737 827.022339,341.949585 
	C839.341370,363.238098 849.043030,385.698853 854.509460,409.599548 
	C858.261536,426.004395 859.796570,442.937439 861.906616,459.686768 
	C862.813965,466.889313 863.155762,474.241272 862.909424,481.496613 
	C862.109985,505.041382 858.795105,528.224365 852.112305,550.891479 
	C843.503906,580.089966 831.036804,607.521851 812.809326,631.889282 
	C802.167419,646.116089 790.589661,659.896851 777.843384,672.236389 
	C758.419922,691.040100 736.132935,706.257690 711.679321,718.080933 
	C688.991455,729.050415 665.378296,737.148254 640.413879,741.039978 
	C635.550476,741.798157 630.667297,742.428772 625.382629,743.320557 
M763.346802,668.912842 
	C775.393250,655.933472 788.322632,643.651184 799.260864,629.796814 
	C812.685120,612.793701 823.017090,593.709045 831.224731,573.521484 
	C841.620239,547.952820 847.981934,521.413635 849.787292,493.968323 
	C850.666077,480.608185 849.415894,467.100739 848.995422,453.664185 
	C848.447449,436.153900 844.639771,419.166656 839.666138,402.502930 
	C828.807068,366.120636 810.745972,333.524994 785.497375,305.215546 
	C770.743225,288.672760 754.158691,273.980377 735.490417,261.752106 
	C712.808777,246.895020 688.516418,235.623749 662.448303,228.264130 
	C643.910767,223.030563 624.891907,220.235489 605.711975,219.160767 
	C595.655212,218.597244 585.476440,219.280121 575.408569,220.092346 
	C563.957214,221.016159 552.390137,221.868698 541.185852,224.233215 
	C509.294769,230.963440 479.572815,243.255936 452.274567,261.207062 
	C428.955719,276.541351 408.811523,295.311615 391.382538,317.083801 
	C376.392456,335.809357 364.250519,356.289764 355.409515,378.478394 
	C342.039093,412.034607 334.614014,446.886719 337.099335,483.248352 
	C338.140289,498.478333 339.506134,513.774048 342.157196,528.786865 
	C347.018829,556.317871 357.482941,581.973022 371.652649,605.997498 
	C384.153046,627.191772 399.136688,646.572510 417.598541,662.967590 
	C427.427246,671.695984 437.475159,680.298462 448.176666,687.898071 
	C471.374695,704.372070 497.029480,716.030945 524.418030,723.640625 
	C546.037964,729.647522 568.141602,732.878357 590.621338,732.946167 
	C597.227661,732.966125 603.833008,732.252869 610.443970,732.028992 
	C628.266235,731.425415 645.554016,727.939148 662.708984,723.206055 
	C700.230103,712.853821 733.503845,694.821228 763.346802,668.912842 
z"/>
<path fill="#5065A8" opacity="1.000000" stroke="none" 
	d="
M882.343872,838.125488 
	C881.585205,839.440918 881.048706,840.674255 881.039917,841.911316 
	C880.970337,851.740051 880.950684,861.569885 881.020020,871.398621 
	C881.061707,877.302368 883.975159,879.358276 889.201111,876.873962 
	C892.867493,875.130981 894.462341,876.603638 896.335083,879.558838 
	C901.095459,887.070801 901.014954,888.408508 892.362244,890.621948 
	C887.188843,891.945374 881.516479,892.245117 876.178528,891.769165 
	C869.120972,891.139954 864.054077,884.510254 864.018066,877.176880 
	C863.955322,864.369202 864.000610,851.560974 864.000610,838.377686 
	C855.645447,838.377686 847.608276,838.377686 839.113464,838.377686 
	C839.113464,855.759460 839.113464,873.012695 839.113464,890.630615 
	C832.963135,890.630615 827.259460,890.630615 821.001709,890.630615 
	C821.001709,881.693604 821.001953,872.912537 821.001648,864.131531 
	C821.001343,856.634644 821.150452,849.132324 820.876038,841.645447 
	C820.819763,840.109131 819.159912,837.322144 818.270325,837.334656 
	C811.612793,837.427673 811.747742,833.120728 812.003296,828.551758 
	C812.057678,827.578552 812.125244,826.606079 812.212341,825.229126 
	C814.969299,825.097717 817.569275,824.973816 820.484131,824.834839 
	C822.090271,816.198547 821.505066,806.654907 830.276794,800.873535 
	C838.251282,795.617737 846.636780,794.813660 856.222656,797.572754 
	C855.741394,801.222473 855.276672,804.746948 854.713867,809.015015 
	C845.258179,809.502869 836.114441,811.053528 838.442871,824.946899 
	C846.294678,824.946899 854.384766,825.023743 862.468445,824.833862 
	C863.321228,824.813843 864.620850,823.350769 864.882385,822.341858 
	C865.783752,818.864319 866.477356,815.312866 866.955017,811.749939 
	C867.820007,805.296875 868.050171,805.002563 874.624084,805.000061 
	C876.579956,804.999329 878.535767,805.000000 880.923828,805.000000 
	C880.923828,811.784668 880.923828,818.048645 880.923828,824.759033 
	C886.621277,824.759033 891.879333,824.759033 897.568115,824.759033 
	C897.568115,829.242065 897.568115,833.281128 897.568115,838.045166 
	C892.679504,838.045166 887.745056,838.045166 882.343872,838.125488 
z"/>
<path fill="#5065A8" opacity="1.000000" stroke="none" 
	d="
M493.125793,823.998901 
	C502.130219,824.474854 507.700317,829.998352 510.718597,836.892944 
	C516.843201,850.882996 516.781433,865.398560 509.302155,879.022095 
	C501.770020,892.741760 484.274780,896.372131 471.311432,887.721924 
	C470.768402,887.359558 470.262329,886.941711 469.717926,886.533936 
	C467.468536,891.561707 465.420990,892.066711 453.332642,890.547607 
	C453.332642,858.906799 453.332642,827.224243 453.332642,795.271362 
	C458.787811,795.271362 464.038574,795.271362 469.802704,795.271362 
	C469.802704,806.915283 469.802704,818.473328 469.802704,831.127014 
	C477.123352,825.581787 484.337311,822.639893 493.125793,823.998901 
M470.000580,850.764221 
	C470.000824,856.909302 469.967255,863.054749 470.028900,869.199158 
	C470.041687,870.473145 470.009827,872.029114 470.681274,872.965637 
	C473.416199,876.780273 477.321228,879.042969 481.996063,878.899780 
	C486.724609,878.754944 490.895752,877.092041 493.270325,872.364502 
	C497.617371,863.710022 498.270325,854.901794 495.045319,845.754944 
	C493.014587,839.995422 488.196533,836.661133 482.910492,837.570312 
	C474.933563,838.942322 470.097198,843.539490 470.000580,850.764221 
z"/>
<path fill="#5065A8" opacity="1.000000" stroke="none" 
	d="
M302.711182,874.171387 
	C294.093506,859.975586 292.417603,844.638550 296.504303,829.545166 
	C301.609924,810.688538 316.732666,797.335632 338.879333,796.879944 
	C352.097809,796.607971 363.538147,799.874695 373.249420,809.631348 
	C371.183838,812.585999 369.463257,815.567383 367.237152,818.105408 
	C364.152924,821.621826 360.826050,820.051575 357.518280,818.035706 
	C347.867981,812.154358 338.012695,810.701721 327.719757,816.632019 
	C319.292450,821.487427 315.380463,829.448669 314.259460,838.329529 
	C312.771973,850.113464 314.905548,861.105774 324.304413,870.007568 
	C332.621796,877.885193 351.596436,877.952332 358.897034,870.619324 
	C362.135498,867.366516 365.020966,867.158569 368.516174,870.875427 
	C375.614441,878.423584 375.574432,877.961670 367.458862,884.324951 
	C357.854401,891.855530 346.938904,892.412109 335.494507,892.084717 
	C324.125397,891.759521 314.925171,887.095947 306.978180,879.418152 
	C305.456390,877.947876 304.292603,876.107056 302.711182,874.171387 
z"/>
<path fill="#5065A8" opacity="1.000000" stroke="none" 
	d="
M635.795166,883.304565 
	C625.434631,874.010620 620.914062,862.714783 619.805054,849.179688 
	C617.957581,826.632324 627.862549,808.417114 646.234314,800.432800 
	C661.532532,793.784302 685.830750,795.494446 697.846313,809.673218 
	C695.711304,812.758423 694.060120,816.719971 691.093140,818.840210 
	C689.318237,820.108521 685.387268,818.851318 682.594971,818.099548 
	C677.150085,816.633667 671.869873,813.433411 666.440674,813.242126 
	C650.072327,812.665039 640.760376,823.654358 639.219482,838.400879 
	C638.567871,844.636169 639.284607,851.364807 640.966553,857.429016 
	C646.355957,876.861023 668.688416,880.829590 682.994995,871.395752 
	C689.523010,867.091125 689.369141,866.900818 694.730713,872.209290 
	C696.147217,873.611694 697.704041,874.872314 699.012878,876.035034 
	C692.434265,892.386292 657.159302,899.157776 635.795166,883.304565 
z"/>
<path fill="#5065A8" opacity="1.000000" stroke="none" 
	d="
M438.999573,884.867920 
	C438.999512,886.994080 438.999512,888.637329 438.999512,890.186096 
	C429.132660,892.566650 425.414948,891.482727 423.220917,886.692017 
	C417.115387,888.515259 411.282135,890.844727 405.225647,891.940613 
	C393.462158,894.069214 382.633911,887.155396 381.404480,875.107056 
	C379.729736,858.694580 380.041656,842.079468 379.492401,825.264709 
	C386.136383,825.264709 391.720886,825.264709 398.001160,825.264709 
	C398.001160,827.306580 398.001190,829.236877 398.001160,831.167236 
	C398.000946,843.491211 397.963409,855.815308 398.015167,868.139038 
	C398.044037,875.017090 402.608734,879.116211 409.439941,877.929077 
	C412.735840,877.356262 416.164185,876.117737 418.894470,874.248596 
	C420.557709,873.109985 421.827545,870.210815 421.866394,868.076843 
	C422.123627,853.953247 421.999390,839.822693 421.999390,825.348877 
	C427.625275,825.348877 432.877930,825.348877 438.999603,825.348877 
	C438.999603,844.929993 438.999603,864.657471 438.999573,884.867920 
z"/>
<path fill="#5065A8" opacity="1.000000" stroke="none" 
	d="
M753.228882,886.724243 
	C745.418091,877.184021 747.284424,864.314880 757.970642,859.278259 
	C764.903809,856.010559 772.881897,854.909912 780.445251,853.056091 
	C783.112549,852.402344 786.721008,854.085693 787.917236,850.152283 
	C788.920532,846.853027 786.032166,840.600098 782.992126,839.024475 
	C778.845032,836.875183 774.624329,836.812866 770.402344,838.900330 
	C768.633301,839.774841 766.837585,840.595215 765.066528,841.465637 
	C759.032104,844.431335 754.079041,842.552795 752.293396,836.283386 
	C751.961487,835.118347 752.816895,832.969116 753.830505,832.172363 
	C759.991882,827.329102 766.778748,823.762451 774.916931,824.013611 
	C779.553284,824.156738 784.368408,823.888794 788.773010,825.053650 
	C798.227295,827.553711 803.631592,834.299683 803.903076,844.014038 
	C804.333191,859.405762 804.017700,874.818298 804.017700,890.403503 
	C794.618469,892.850281 791.113342,891.547607 789.649292,884.306396 
	C783.263672,890.172485 775.866028,892.753662 767.322571,892.224060 
	C762.113647,891.901184 757.105408,891.371948 753.228882,886.724243 
M779.350281,864.847839 
	C776.177673,865.600220 772.658630,865.747681 769.944824,867.301392 
	C767.867432,868.490723 765.408142,871.637939 765.659790,873.586060 
	C765.954590,875.867493 768.638428,878.948120 770.922363,879.670959 
	C780.273743,882.630737 789.191711,874.117188 787.321655,863.951782 
	C784.961243,864.098083 782.532898,864.248535 779.350281,864.847839 
z"/>
<path fill="#5065A8" opacity="1.000000" stroke="none" 
	d="
M569.760742,860.761230 
	C572.164307,858.208374 571.935120,856.106262 570.127075,853.547302 
	C564.265259,845.250854 558.621094,836.800232 552.920044,828.390808 
	C552.385620,827.602478 552.040955,826.685425 551.206482,825.032654 
	C557.628601,825.032654 563.499512,824.895691 569.353821,825.145569 
	C570.556091,825.196960 572.088806,826.445618 572.800415,827.566833 
	C576.746094,833.783813 580.485229,840.131775 584.422485,846.645691 
	C588.679810,840.141907 592.647583,833.757446 597.012573,827.657104 
	C598.007019,826.267273 600.328674,825.254944 602.119385,825.118530 
	C606.746521,824.766357 611.418213,825.000549 616.997864,825.000549 
	C614.870300,828.428955 613.221497,831.365845 611.305298,834.116577 
	C607.088501,840.170044 602.745911,846.136047 598.435791,852.124207 
	C596.634766,854.626404 595.855591,856.646851 598.081787,859.825806 
	C604.461243,868.935242 610.266541,878.447388 616.267517,887.820435 
	C616.771423,888.607666 617.049683,889.539307 617.687378,890.978455 
	C611.381531,890.978455 605.601318,891.223877 599.868835,890.809387 
	C598.395691,890.702881 596.712524,888.748230 595.744080,887.244385 
	C591.762756,881.061890 588.019897,874.725891 583.818237,867.838135 
	C579.041382,875.007751 574.717896,881.791626 570.023315,888.308105 
	C569.018677,889.702637 566.716003,890.741882 564.929260,890.879639 
	C560.301575,891.236511 555.628235,890.999512 549.830566,890.999512 
	C556.683411,880.566345 563.098450,870.799622 569.760742,860.761230 
z"/>
<path fill="#5064A8" opacity="1.000000" stroke="none" 
	d="
M706.009399,834.058350 
	C706.009399,830.932922 706.009399,828.299072 706.009399,825.018677 
	C710.509338,825.018677 714.825806,824.260620 718.630615,825.327454 
	C720.636230,825.889893 721.748840,829.637146 723.480713,832.275452 
	C724.346924,831.355591 725.942871,829.674744 727.523560,827.979797 
	C732.368652,822.784607 738.286987,822.218079 744.700989,824.096008 
	C747.076904,824.791565 747.994141,831.764771 746.650696,836.823547 
	C745.730408,840.288574 744.053711,841.765442 740.241150,840.722534 
	C738.362244,840.208557 736.062744,840.449341 734.144165,841.005737 
	C727.639282,842.892029 724.019775,847.831665 724.007507,854.425110 
	C723.985229,866.390869 724.001221,878.356567 724.001221,890.659302 
	C718.026367,890.659302 712.441162,890.659302 706.009399,890.659302 
	C706.009399,872.027588 706.009399,853.288818 706.009399,834.058350 
z"/>
<path fill="#5065A8" opacity="1.000000" stroke="none" 
	d="
M543.000000,874.996460 
	C543.000000,880.457031 543.000000,885.418579 543.000000,890.685669 
	C537.303589,890.685669 532.051270,890.685669 526.396606,890.685669 
	C526.396606,869.023376 526.396606,847.327087 526.396606,825.314209 
	C531.696289,825.314209 536.948547,825.314209 543.000000,825.314209 
	C543.000000,841.682800 543.000000,858.090149 543.000000,874.996460 
z"/>
<path fill="#5065A8" opacity="1.000000" stroke="none" 
	d="
M536.996399,795.938293 
	C544.104248,798.772461 547.134644,804.690918 544.817322,810.510315 
	C542.907532,815.306274 535.874451,817.943909 530.271179,815.965576 
	C525.088013,814.135498 522.443909,808.263855 524.060852,802.174377 
	C525.239258,797.736389 531.486267,794.604553 536.996399,795.938293 
z"/>
<path fill="#000000" opacity="1.000000" stroke="none" 
	d="
M762.999512,669.000488 
	C733.503845,694.821228 700.230103,712.853821 662.708984,723.206055 
	C645.554016,727.939148 628.266235,731.425415 610.443970,732.028992 
	C603.833008,732.252869 597.227661,732.966125 590.621338,732.946167 
	C568.141602,732.878357 546.037964,729.647522 524.418030,723.640625 
	C497.029480,716.030945 471.374695,704.372070 448.176666,687.898071 
	C437.475159,680.298462 427.427246,671.695984 417.598541,662.967590 
	C399.136688,646.572510 384.153046,627.191772 371.652649,605.997498 
	C357.482941,581.973022 347.018829,556.317871 342.157196,528.786865 
	C339.506134,513.774048 338.140289,498.478333 337.099335,483.248352 
	C334.614014,446.886719 342.039093,412.034607 355.409515,378.478394 
	C364.250519,356.289764 376.392456,335.809357 391.382538,317.083801 
	C408.811523,295.311615 428.955719,276.541351 452.274567,261.207062 
	C479.572815,243.255936 509.294769,230.963440 541.185852,224.233215 
	C552.390137,221.868698 563.957214,221.016159 575.408569,220.092346 
	C585.476440,219.280121 595.655212,218.597244 605.711975,219.160767 
	C624.891907,220.235489 643.910767,223.030563 662.448303,228.264130 
	C688.516418,235.623749 712.808777,246.895020 735.490417,261.752106 
	C754.158691,273.980377 770.743225,288.672760 785.497375,305.215546 
	C810.745972,333.524994 828.807068,366.120636 839.666138,402.502930 
	C844.639771,419.166656 848.447449,436.153900 848.995422,453.664185 
	C849.415894,467.100739 850.666077,480.608185 849.787292,493.968323 
	C847.981934,521.413635 841.620239,547.952820 831.224731,573.521484 
	C823.017090,593.709045 812.685120,612.793701 799.260864,629.796814 
	C788.322632,643.651184 775.393250,655.933472 762.999512,669.000488 
M678.999207,506.499054 
	C678.999390,497.666504 678.736267,488.822754 679.112244,480.006226 
	C679.296936,475.676086 677.425842,473.034119 674.152832,471.077362 
	C651.216980,457.365540 628.097778,443.953217 605.359497,429.922668 
	C598.821411,425.888367 593.467468,426.792816 587.489136,430.190125 
	C564.382568,443.320953 541.257202,456.419708 518.058533,469.386688 
	C514.150330,471.571167 512.137024,474.772400 512.068604,478.893005 
	C511.610504,506.496582 511.249634,534.102661 511.094666,561.709290 
	C511.070923,565.945068 512.319458,569.750916 516.962219,572.147339 
	C524.374207,575.973206 531.311523,580.711731 538.497620,584.983582 
	C555.405884,595.034851 572.403137,604.938293 589.227295,615.127869 
	C593.733459,617.857117 597.571594,617.047424 601.687561,614.691223 
	C611.509277,609.068665 621.365173,603.505432 631.224976,597.949524 
	C645.235901,590.054443 659.358826,582.349792 673.185974,574.145813 
	C675.444153,572.805969 677.704590,569.360657 677.795105,566.811523 
	C678.496704,547.051086 678.665527,527.271790 678.999207,506.499054 
M707.010010,586.331665 
	C708.808289,581.007690 706.642029,576.522766 701.442444,574.804932 
	C696.241455,573.086670 692.424316,575.199036 690.653687,580.775391 
	C689.057007,585.803711 691.449158,589.757202 696.985352,591.519165 
	C701.671326,593.010620 704.508728,590.605652 707.010010,586.331665 
M601.826721,394.381927 
	C598.728821,394.252075 595.199158,393.111786 592.626343,394.210999 
	C587.848206,396.252441 586.599304,402.739563 589.357117,406.733063 
	C591.740417,410.184174 598.570312,411.314178 601.725403,408.779327 
	C606.326050,405.083099 606.596863,399.453278 601.826721,394.381927 
M754.956238,609.012817 
	C750.357117,610.332092 747.989136,613.887329 748.301880,618.153992 
	C748.600708,622.230591 751.400085,625.372131 755.953064,625.972412 
	C761.855286,626.750610 765.721863,623.577698 765.986633,617.852417 
	C766.212219,612.973816 761.680359,609.046692 754.956238,609.012817 
M601.232300,375.198792 
	C601.944458,374.510010 602.720581,373.875458 603.357727,373.123138 
	C606.243042,369.715881 606.163086,365.927948 603.837952,362.488586 
	C601.320557,358.764709 597.120361,357.814392 593.303955,359.509125 
	C589.352539,361.263794 587.225281,365.098206 588.124573,369.605927 
	C588.951172,373.749512 591.763733,376.080933 596.196167,375.989838 
	C597.676819,375.959442 599.155518,375.832214 601.232300,375.198792 
M723.907043,607.967773 
	C724.657166,608.292603 725.498291,609.019104 726.141724,608.873230 
	C729.057373,608.212219 732.673950,608.105591 734.603821,606.281738 
	C736.964111,604.051025 738.304077,600.344604 735.927429,596.807739 
	C733.795959,593.635803 731.108093,590.717834 727.032471,592.163757 
	C724.411072,593.093689 721.746399,595.166931 720.154907,597.459351 
	C717.248230,601.646240 720.041321,604.859314 723.907043,607.967773 
M594.389832,325.882172 
	C588.769592,327.924072 586.545959,332.466400 588.780945,337.339752 
	C591.124023,342.448792 595.946960,344.080780 600.927185,341.581665 
	C605.174377,339.450439 605.805847,335.807831 604.978516,331.763519 
	C604.041138,327.180969 601.045715,325.428925 594.389832,325.882172 
M427.592102,606.931274 
	C422.866974,613.421692 424.335510,620.918701 430.647278,621.918030 
	C434.505402,622.528809 438.483185,622.224121 440.347290,618.064697 
	C441.894775,614.611816 442.627716,610.877075 439.268127,607.770081 
	C435.896149,604.651672 432.240173,603.711548 427.592102,606.931274 
M454.068726,595.011230 
	C453.990784,603.038147 459.597778,608.002380 465.514282,605.132446 
	C469.309814,603.291321 471.369934,600.324219 470.962921,596.026123 
	C470.511597,591.260071 467.078857,589.284180 462.968842,588.578735 
	C458.566376,587.823181 456.133087,590.725525 454.068726,595.011230 
M487.102325,573.380066 
	C486.246674,574.577026 485.158569,575.671692 484.578430,576.989929 
	C482.754395,581.134644 484.617340,586.800354 488.241089,588.639587 
	C491.445068,590.265808 497.976013,588.344421 499.439789,584.860229 
	C500.735260,581.776550 501.562653,578.333618 498.805878,575.317383 
	C495.675476,571.892334 492.014130,570.956665 487.102325,573.380066 
z"/>
<path fill="#000000" opacity="1.000000" stroke="none" 
	d="
M470.000610,850.302979 
	C470.097198,843.539490 474.933563,838.942322 482.910492,837.570312 
	C488.196533,836.661133 493.014587,839.995422 495.045319,845.754944 
	C498.270325,854.901794 497.617371,863.710022 493.270325,872.364502 
	C490.895752,877.092041 486.724609,878.754944 481.996063,878.899780 
	C477.321228,879.042969 473.416199,876.780273 470.681274,872.965637 
	C470.009827,872.029114 470.041687,870.473145 470.028900,869.199158 
	C469.967255,863.054749 470.000824,856.909302 470.000610,850.302979 
z"/>
<path fill="#000000" opacity="1.000000" stroke="none" 
	d="
M779.727417,864.623413 
	C782.532898,864.248535 784.961243,864.098083 787.321655,863.951782 
	C789.191711,874.117188 780.273743,882.630737 770.922363,879.670959 
	C768.638428,878.948120 765.954590,875.867493 765.659790,873.586060 
	C765.408142,871.637939 767.867432,868.490723 769.944824,867.301392 
	C772.658630,865.747681 776.177673,865.600220 779.727417,864.623413 
z"/>
<path fill="#5065A8" opacity="1.000000" stroke="none" 
	d="
M678.999268,506.998657 
	C678.665527,527.271790 678.496704,547.051086 677.795105,566.811523 
	C677.704590,569.360657 675.444153,572.805969 673.185974,574.145813 
	C659.358826,582.349792 645.235901,590.054443 631.224976,597.949524 
	C621.365173,603.505432 611.509277,609.068665 601.687561,614.691223 
	C597.571594,617.047424 593.733459,617.857117 589.227295,615.127869 
	C572.403137,604.938293 555.405884,595.034851 538.497620,584.983582 
	C531.311523,580.711731 524.374207,575.973206 516.962219,572.147339 
	C512.319458,569.750916 511.070923,565.945068 511.094666,561.709290 
	C511.249634,534.102661 511.610504,506.496582 512.068604,478.893005 
	C512.137024,474.772400 514.150330,471.571167 518.058533,469.386688 
	C541.257202,456.419708 564.382568,443.320953 587.489136,430.190125 
	C593.467468,426.792816 598.821411,425.888367 605.359497,429.922668 
	C628.097778,443.953217 651.216980,457.365540 674.152832,471.077362 
	C677.425842,473.034119 679.296936,475.676086 679.112244,480.006226 
	C678.736267,488.822754 678.999390,497.666504 678.999268,506.998657 
M587.000000,546.495667 
	C586.999939,541.504272 586.658142,536.481995 587.104980,531.530884 
	C587.482056,527.353149 585.583618,525.453979 582.260864,523.567627 
	C571.444458,517.427063 560.824951,510.940674 550.096313,504.644348 
	C543.650085,500.861237 537.141663,497.184204 529.008484,492.509583 
	C529.008484,515.042358 528.974426,536.226440 529.104980,557.409546 
	C529.111755,558.515686 530.278870,559.995239 531.316528,560.649109 
	C536.021667,563.614197 540.872559,566.348328 545.674316,569.159912 
	C558.907898,576.908569 572.143188,584.654419 587.000000,593.351013 
	C587.000000,577.221741 587.000000,562.357361 587.000000,546.495667 
M661.111145,540.876221 
	C661.111145,525.864685 661.111145,510.853210 661.111145,495.687439 
	C660.018433,496.153931 658.618103,496.605499 657.360168,497.311035 
	C641.053589,506.456940 624.837769,515.768494 608.414917,524.699890 
	C605.217102,526.439026 603.866577,528.092712 603.912964,531.792664 
	C604.115356,547.946472 604.073181,564.104919 603.947876,580.260376 
	C603.915833,584.391602 603.254883,588.517944 602.807129,593.486938 
	C622.207153,582.773560 640.578369,572.695251 658.826538,562.398987 
	C660.030273,561.719849 660.823059,559.404968 660.902283,557.806091 
	C661.165833,552.488831 661.016235,547.151123 661.111145,540.876221 
M567.985229,495.487335 
	C576.282593,500.439636 584.533691,505.473206 592.931519,510.248810 
	C594.074341,510.898743 596.209656,510.765656 597.444885,510.133850 
	C605.178711,506.178162 612.838440,502.069458 620.425354,497.836853 
	C631.215332,491.817322 641.921326,485.647217 653.044128,479.324890 
	C634.453918,468.273773 616.331299,457.447937 598.104797,446.799927 
	C597.039307,446.177460 594.881775,446.534790 593.657776,447.208710 
	C578.859375,455.356445 564.132690,463.634644 549.408142,471.915955 
	C545.929138,473.872650 542.527649,475.967377 538.617065,478.278351 
	C548.702393,484.177124 558.029419,489.632385 567.985229,495.487335 
z"/>
<path fill="#5065A8" opacity="1.000000" stroke="none" 
	d="
M706.964294,586.720337 
	C704.508728,590.605652 701.671326,593.010620 696.985352,591.519165 
	C691.449158,589.757202 689.057007,585.803711 690.653687,580.775391 
	C692.424316,575.199036 696.241455,573.086670 701.442444,574.804932 
	C706.642029,576.522766 708.808289,581.007690 706.964294,586.720337 
z"/>
<path fill="#5065A8" opacity="1.000000" stroke="none" 
	d="
M602.109253,394.656219 
	C606.596863,399.453278 606.326050,405.083099 601.725403,408.779327 
	C598.570312,411.314178 591.740417,410.184174 589.357117,406.733063 
	C586.599304,402.739563 587.848206,396.252441 592.626343,394.210999 
	C595.199158,393.111786 598.728821,394.252075 602.109253,394.656219 
z"/>
<path fill="#5065A8" opacity="1.000000" stroke="none" 
	d="
M755.365234,609.007874 
	C761.680359,609.046692 766.212219,612.973816 765.986633,617.852417 
	C765.721863,623.577698 761.855286,626.750610 755.953064,625.972412 
	C751.400085,625.372131 748.600708,622.230591 748.301880,618.153992 
	C747.989136,613.887329 750.357117,610.332092 755.365234,609.007874 
z"/>
<path fill="#5065A8" opacity="1.000000" stroke="none" 
	d="
M600.933716,375.474030 
	C599.155518,375.832214 597.676819,375.959442 596.196167,375.989838 
	C591.763733,376.080933 588.951172,373.749512 588.124573,369.605927 
	C587.225281,365.098206 589.352539,361.263794 593.303955,359.509125 
	C597.120361,357.814392 601.320557,358.764709 603.837952,362.488586 
	C606.163086,365.927948 606.243042,369.715881 603.357727,373.123138 
	C602.720581,373.875458 601.944458,374.510010 600.933716,375.474030 
z"/>
<path fill="#5065A8" opacity="1.000000" stroke="none" 
	d="
M723.549194,607.801514 
	C720.041321,604.859314 717.248230,601.646240 720.154907,597.459351 
	C721.746399,595.166931 724.411072,593.093689 727.032471,592.163757 
	C731.108093,590.717834 733.795959,593.635803 735.927429,596.807739 
	C738.304077,600.344604 736.964111,604.051025 734.603821,606.281738 
	C732.673950,608.105591 729.057373,608.212219 726.141724,608.873230 
	C725.498291,609.019104 724.657166,608.292603 723.549194,607.801514 
z"/>
<path fill="#5065A8" opacity="1.000000" stroke="none" 
	d="
M594.720093,325.672302 
	C601.045715,325.428925 604.041138,327.180969 604.978516,331.763519 
	C605.805847,335.807831 605.174377,339.450439 600.927185,341.581665 
	C595.946960,344.080780 591.124023,342.448792 588.780945,337.339752 
	C586.545959,332.466400 588.769592,327.924072 594.720093,325.672302 
z"/>
<path fill="#5065A8" opacity="1.000000" stroke="none" 
	d="
M427.861328,606.639771 
	C432.240173,603.711548 435.896149,604.651672 439.268127,607.770081 
	C442.627716,610.877075 441.894775,614.611816 440.347290,618.064697 
	C438.483185,622.224121 434.505402,622.528809 430.647278,621.918030 
	C424.335510,620.918701 422.866974,613.421692 427.861328,606.639771 
z"/>
<path fill="#5065A8" opacity="1.000000" stroke="none" 
	d="
M454.188843,594.630615 
	C456.133087,590.725525 458.566376,587.823181 462.968842,588.578735 
	C467.078857,589.284180 470.511597,591.260071 470.962921,596.026123 
	C471.369934,600.324219 469.309814,603.291321 465.514282,605.132446 
	C459.597778,608.002380 453.990784,603.038147 454.188843,594.630615 
z"/>
<path fill="#5065A8" opacity="1.000000" stroke="none" 
	d="
M487.407288,573.115356 
	C492.014130,570.956665 495.675476,571.892334 498.805878,575.317383 
	C501.562653,578.333618 500.735260,581.776550 499.439789,584.860229 
	C497.976013,588.344421 491.445068,590.265808 488.241089,588.639587 
	C484.617340,586.800354 482.754395,581.134644 484.578430,576.989929 
	C485.158569,575.671692 486.246674,574.577026 487.407288,573.115356 
z"/>
<path fill="#000000" opacity="1.000000" stroke="none" 
	d="
M587.000000,546.994324 
	C587.000000,562.357361 587.000000,577.221741 587.000000,593.351013 
	C572.143188,584.654419 558.907898,576.908569 545.674316,569.159912 
	C540.872559,566.348328 536.021667,563.614197 531.316528,560.649109 
	C530.278870,559.995239 529.111755,558.515686 529.104980,557.409546 
	C528.974426,536.226440 529.008484,515.042358 529.008484,492.509583 
	C537.141663,497.184204 543.650085,500.861237 550.096313,504.644348 
	C560.824951,510.940674 571.444458,517.427063 582.260864,523.567627 
	C585.583618,525.453979 587.482056,527.353149 587.104980,531.530884 
	C586.658142,536.481995 586.999939,541.504272 587.000000,546.994324 
z"/>
<path fill="#000000" opacity="1.000000" stroke="none" 
	d="
M661.068115,541.348755 
	C661.016235,547.151123 661.165833,552.488831 660.902283,557.806091 
	C660.823059,559.404968 660.030273,561.719849 658.826538,562.398987 
	C640.578369,572.695251 622.207153,582.773560 602.807129,593.486938 
	C603.254883,588.517944 603.915833,584.391602 603.947876,580.260376 
	C604.073181,564.104919 604.115356,547.946472 603.912964,531.792664 
	C603.866577,528.092712 605.217102,526.439026 608.414917,524.699890 
	C624.837769,515.768494 641.053589,506.456940 657.360168,497.311035 
	C658.618103,496.605499 660.018433,496.153931 661.111145,495.687439 
	C661.111145,510.853210 661.111145,525.864685 661.068115,541.348755 
z"/>
<path fill="#000000" opacity="1.000000" stroke="none" 
	d="
M567.670837,495.287476 
	C558.029419,489.632385 548.702393,484.177124 538.617065,478.278351 
	C542.527649,475.967377 545.929138,473.872650 549.408142,471.915955 
	C564.132690,463.634644 578.859375,455.356445 593.657776,447.208710 
	C594.881775,446.534790 597.039307,446.177460 598.104797,446.799927 
	C616.331299,457.447937 634.453918,468.273773 653.044128,479.324890 
	C641.921326,485.647217 631.215332,491.817322 620.425354,497.836853 
	C612.838440,502.069458 605.178711,506.178162 597.444885,510.133850 
	C596.209656,510.765656 594.074341,510.898743 592.931519,510.248810 
	C584.533691,505.473206 576.282593,500.439636 567.670837,495.287476 
z"/>
</svg>